<?xml version="1.0" encoding="UTF-8" standalone="no"?>
<!DOCTYPE svg PUBLIC "-//W3C//DTD SVG 1.1//EN" "http://www.w3.org/Graphics/SVG/1.1/DTD/svg11.dtd">
<svg width="100%" height="100%" viewBox="0 0 2146 1838" version="1.1" xmlns="http://www.w3.org/2000/svg" xmlns:xlink="http://www.w3.org/1999/xlink" xml:space="preserve" xmlns:serif="http://www.serif.com/" style="fill-rule:evenodd;clip-rule:evenodd;stroke-linejoin:round;stroke-miterlimit:2;">
    <g transform="matrix(1,0,0,1,-3153.92,-695.883)">
        <g transform="matrix(4.16667,0,0,4.16667,0,0)">
            <g transform="matrix(1,0,0,1,1018.51,608.113)">
                <path d="M0,-441.101L-94.357,-71.822L-85.236,-71.822L-85.236,-49.452L-100.068,-49.452L-116.091,0L-92.993,0L-43.19,-181.671C-45.398,-195.138 -46.497,-209.323 -46.497,-224.213C-46.497,-242.294 -44.867,-259.346 -41.606,-275.346C-38.346,-291.357 -33.641,-306.108 -27.491,-319.588C-21.341,-333.068 -13.861,-345.171 -5.063,-355.888C-2.22,-359.356 0.751,-362.651 3.85,-365.772L23.098,-441.101L0,-441.101Z" style="fill:white;fill-rule:nonzero;"/>
            </g>
        </g>
        <g transform="matrix(4.16667,0,0,4.16667,0,0)">
            <g transform="matrix(1,0,0,1,864.234,224.191)">
                <path d="M0,312.1L0,-22.37L-22.242,-22.37C-22.242,-11.862 -22.543,-2.798 -23.156,4.82C-23.768,12.439 -24.809,18.936 -26.277,24.311C-27.745,29.687 -29.757,34.045 -32.323,37.386C-34.89,40.727 -38.115,43.317 -41.976,45.144C-45.849,46.982 -50.497,48.219 -55.907,48.878C-61.329,49.525 -67.664,49.849 -74.912,49.849L-107.294,49.849L-107.294,71.12L-23.953,71.12L-23.953,312.1L-92.878,312.1L-92.878,334.47L54.207,334.47L59.918,312.1L0,312.1Z" style="fill:white;fill-rule:nonzero;"/>
            </g>
        </g>
        <g transform="matrix(4.16667,0,0,4.16667,0,0)">
            <g transform="matrix(1,0,0,1,1243.8,338.571)">
                <path d="M0,90.669C-2.694,104.842 -6.578,117.848 -11.676,129.651C-16.763,141.466 -22.971,152.044 -30.312,161.362C-37.641,170.691 -45.976,178.599 -55.294,185.073C-64.624,191.546 -74.878,196.506 -86.034,199.928C-97.201,203.35 -109.132,205.061 -121.837,205.061C-134.553,205.061 -146.484,203.35 -157.651,199.928C-168.807,196.506 -179.05,191.546 -188.379,185.073C-197.709,178.599 -206.056,170.691 -213.431,161.362C-220.807,152.044 -227.038,141.466 -232.125,129.651C-237.223,117.848 -241.107,104.842 -243.801,90.669C-246.494,76.496 -247.835,61.386 -247.835,45.328C-247.835,29.282 -246.494,14.173 -243.801,-0C-241.107,-14.185 -237.223,-27.179 -232.125,-38.983C-227.038,-50.798 -220.807,-61.375 -213.431,-70.705C-206.056,-80.023 -197.709,-87.93 -188.379,-94.404C-179.05,-100.889 -168.807,-105.837 -157.651,-109.259C-146.484,-112.681 -134.553,-114.392 -121.837,-114.392C-109.132,-114.392 -97.201,-112.681 -86.034,-109.259C-74.878,-105.837 -64.624,-100.889 -55.294,-94.404C-45.976,-87.93 -37.641,-80.023 -30.312,-70.705C-22.971,-61.375 -16.763,-50.798 -11.676,-38.983C-6.578,-27.179 -2.694,-14.185 0,-0C2.682,14.173 4.035,29.282 4.035,45.328C4.035,61.386 2.682,76.496 0,90.669M23.098,-5.804C19.838,-21.815 15.133,-36.567 8.983,-50.046C2.832,-63.526 -4.647,-75.63 -13.445,-86.346C-22.243,-97.051 -32.219,-106.138 -43.387,-113.594C-54.543,-121.051 -66.704,-126.774 -79.86,-130.762C-93.016,-134.75 -107.016,-136.75 -121.837,-136.75C-136.75,-136.75 -150.784,-134.75 -163.94,-130.762C-177.096,-126.774 -189.258,-121.051 -200.414,-113.594C-207.963,-108.554 -214.969,-102.762 -221.443,-96.231L-268.483,87.871C-268.009,90.773 -267.477,93.64 -266.899,96.472C-263.639,112.484 -258.933,127.235 -252.783,140.715C-246.633,154.194 -239.153,166.298 -230.356,177.015C-221.558,187.72 -211.581,196.807 -200.414,204.263C-189.258,211.72 -177.096,217.442 -163.94,221.431C-150.784,225.419 -136.75,227.419 -121.837,227.419C-107.016,227.419 -93.016,225.419 -79.86,221.431C-66.704,217.442 -54.543,211.72 -43.387,204.263C-32.219,196.807 -22.243,187.72 -13.445,177.015C-4.647,166.298 2.832,154.194 8.983,140.715C15.133,127.235 19.838,112.484 23.098,96.472C26.358,80.473 27.988,63.421 27.988,45.328C27.988,27.248 26.358,10.196 23.098,-5.804" style="fill:white;fill-rule:nonzero;"/>
            </g>
        </g>
    </g>
</svg>
