<?xml version="1.0" encoding="UTF-8" standalone="no"?>
<!DOCTYPE svg PUBLIC "-//W3C//DTD SVG 1.1//EN" "http://www.w3.org/Graphics/SVG/1.1/DTD/svg11.dtd">
<svg width="100%" height="100%" viewBox="0 0 2122 606" version="1.1" xmlns="http://www.w3.org/2000/svg" xmlns:xlink="http://www.w3.org/1999/xlink" xml:space="preserve" xmlns:serif="http://www.serif.com/" style="fill-rule:evenodd;clip-rule:evenodd;stroke-linejoin:round;stroke-miterlimit:2;">
    <g transform="matrix(1,0,0,1,-3670.26,-2872)">
        <g transform="matrix(4.16667,0,0,4.16667,0,0)">
            <g transform="matrix(1,0,0,1,912.091,833.61)">
                <path d="M0,-48.313C2.444,-47.603 4.53,-46.595 6.259,-45.286C7.987,-43.978 9.314,-42.394 10.24,-40.535C11.165,-38.676 11.628,-36.605 11.628,-34.32L5.315,-34.32C5.315,-35.738 4.993,-37.02 4.35,-38.171C3.706,-39.32 2.795,-40.311 1.616,-41.143C0.438,-41.974 -0.984,-42.615 -2.646,-43.062C-4.309,-43.51 -6.168,-43.735 -8.222,-43.735C-10.116,-43.735 -11.877,-43.535 -13.504,-43.138C-15.131,-42.74 -16.541,-42.179 -17.734,-41.457C-18.927,-40.733 -19.86,-39.863 -20.533,-38.842C-21.205,-37.823 -21.541,-36.692 -21.541,-35.448C-21.541,-34.551 -21.365,-33.771 -21.01,-33.105C-20.656,-32.44 -20.171,-31.857 -19.557,-31.359C-18.942,-30.86 -18.219,-30.436 -17.387,-30.09C-16.556,-29.742 -15.659,-29.442 -14.697,-29.189C-13.736,-28.937 -12.734,-28.72 -11.693,-28.538C-10.651,-28.358 -9.61,-28.181 -8.569,-28.007L-5.575,-27.53C-4.23,-27.313 -2.824,-27.067 -1.355,-26.792C0.112,-26.518 1.547,-26.167 2.951,-25.74C4.353,-25.314 5.687,-24.774 6.953,-24.124C8.219,-23.473 9.328,-22.662 10.283,-21.694C11.238,-20.725 11.997,-19.565 12.561,-18.213C13.125,-16.86 13.407,-15.266 13.407,-13.428C13.407,-11.115 12.937,-9.061 11.997,-7.268C11.057,-5.474 9.694,-3.959 7.908,-2.723C6.122,-1.487 3.941,-0.546 1.367,0.097C-1.207,0.741 -4.143,1.062 -7.441,1.062C-10.825,1.062 -13.841,0.718 -16.487,0.033C-19.133,-0.654 -21.361,-1.656 -23.169,-2.972C-24.977,-4.289 -26.35,-5.901 -27.29,-7.81C-28.231,-9.72 -28.701,-11.91 -28.701,-14.383L-22.387,-14.383C-22.387,-12.821 -22.059,-11.433 -21.4,-10.218C-20.743,-9.003 -19.781,-7.976 -18.515,-7.137C-17.25,-6.299 -15.688,-5.663 -13.829,-5.229C-11.971,-4.794 -9.849,-4.577 -7.462,-4.577C-5.221,-4.577 -3.203,-4.769 -1.409,-5.153C0.384,-5.536 1.909,-6.097 3.167,-6.834C4.426,-7.572 5.394,-8.479 6.074,-9.556C6.754,-10.633 7.094,-11.874 7.094,-13.278C7.094,-14.332 6.902,-15.255 6.519,-16.043C6.136,-16.832 5.615,-17.515 4.957,-18.093C4.299,-18.672 3.522,-19.166 2.625,-19.579C1.728,-19.991 0.76,-20.345 -0.282,-20.642C-1.323,-20.939 -2.411,-21.191 -3.547,-21.401C-4.682,-21.611 -5.821,-21.818 -6.964,-22.019L-9.957,-22.519C-11.23,-22.736 -12.554,-22.974 -13.927,-23.234C-15.301,-23.495 -16.65,-23.827 -17.973,-24.232C-19.296,-24.636 -20.558,-25.136 -21.759,-25.729C-22.959,-26.322 -24.011,-27.056 -24.915,-27.931C-25.819,-28.806 -26.535,-29.843 -27.063,-31.045C-27.591,-32.244 -27.854,-33.662 -27.854,-35.295C-27.854,-37.436 -27.381,-39.37 -26.434,-41.099C-25.487,-42.827 -24.152,-44.306 -22.431,-45.535C-20.71,-46.764 -18.646,-47.712 -16.238,-48.378C-13.829,-49.042 -11.157,-49.375 -8.222,-49.375C-5.185,-49.375 -2.444,-49.021 0,-48.313" style="fill:white;fill-rule:nonzero;"/>
            </g>
        </g>
        <g transform="matrix(4.16667,0,0,4.16667,0,0)">
            <g transform="matrix(1,0,0,1,1006.84,774.885)">
                <path d="M0,59.397C-1.512,59.643 -2.939,59.766 -4.285,59.766C-6.526,59.766 -8.504,59.418 -10.218,58.724C-11.931,58.03 -13.367,56.993 -14.524,55.612C-15.681,54.231 -16.56,52.517 -17.159,50.47C-17.76,48.424 -18.06,46.056 -18.06,43.365L-18.06,-0.369L-11.595,-0.369L-11.595,43.387C-11.595,45.181 -11.429,46.743 -11.096,48.073C-10.764,49.404 -10.258,50.507 -9.578,51.381C-8.898,52.257 -8.034,52.91 -6.985,53.345C-5.937,53.779 -4.697,53.996 -3.265,53.996C-2.223,53.996 -1.041,53.883 0.282,53.659C1.605,53.435 3.12,53.085 4.827,52.607L4.827,58.248C3.12,58.768 1.511,59.151 0,59.397M-25.154,10.651L4.826,10.651L4.826,16.14L-25.154,16.14L-25.154,10.651Z" style="fill:white;fill-rule:nonzero;"/>
            </g>
        </g>
        <g transform="matrix(4.16667,0,0,4.16667,0,0)">
            <g transform="matrix(1,0,0,1,1106.64,834.672)">
                <path d="M0,-49.136L6.464,-49.136L6.464,-1.301L0,-1.301L0,-15.75L0.065,-15.793C-0.514,-13.377 -1.367,-11.197 -2.495,-9.253C-3.623,-7.307 -4.989,-5.647 -6.595,-4.274C-8.201,-2.9 -10.008,-1.844 -12.018,-1.106C-14.029,-0.369 -16.198,0 -18.526,0C-21.274,0 -23.748,-0.513 -25.946,-1.539C-28.144,-2.567 -30.013,-4.039 -31.554,-5.955C-33.094,-7.871 -34.276,-10.192 -35.101,-12.918C-35.925,-15.644 -36.337,-18.706 -36.337,-22.106L-36.337,-49.136L-29.873,-49.136L-29.873,-22.106C-29.873,-19.488 -29.568,-17.174 -28.962,-15.164C-28.354,-13.153 -27.461,-11.458 -26.282,-10.076C-25.104,-8.695 -23.654,-7.65 -21.933,-6.942C-20.212,-6.232 -18.23,-5.879 -15.989,-5.879C-14.369,-5.879 -12.853,-6.063 -11.444,-6.432C-10.034,-6.801 -8.732,-7.332 -7.539,-8.026C-6.345,-8.721 -5.282,-9.57 -4.349,-10.575C-3.417,-11.58 -2.629,-12.724 -1.985,-14.004C-1.342,-15.283 -0.85,-16.693 -0.51,-18.233C-0.17,-19.774 0,-21.425 0,-23.19L0,-49.136Z" style="fill:white;fill-rule:nonzero;"/>
            </g>
        </g>
        <g transform="matrix(4.16667,0,0,4.16667,0,0)">
            <g transform="matrix(1,0,0,1,1209.98,799.918)">
                <path d="M0,3.994C-0.354,2.272 -0.864,0.689 -1.529,-0.758C-2.194,-2.204 -3.008,-3.494 -3.97,-4.63C-4.932,-5.765 -6.024,-6.727 -7.246,-7.515C-8.468,-8.304 -9.806,-8.907 -11.259,-9.326C-12.713,-9.746 -14.271,-9.956 -15.934,-9.956C-18.422,-9.956 -20.641,-9.515 -22.594,-8.632C-24.546,-7.751 -26.199,-6.473 -27.551,-4.804C-28.903,-3.134 -29.937,-1.093 -30.653,1.314C-31.369,3.722 -31.727,6.46 -31.727,9.525C-31.727,12.592 -31.369,15.329 -30.653,17.737C-29.937,20.144 -28.903,22.188 -27.551,23.865C-26.199,25.543 -24.546,26.823 -22.594,27.704C-20.641,28.587 -18.422,29.028 -15.934,29.028C-14.271,29.028 -12.713,28.818 -11.259,28.398C-9.806,27.979 -8.472,27.376 -7.256,26.588C-6.041,25.799 -4.95,24.838 -3.981,23.703C-3.012,22.566 -2.194,21.272 -1.529,19.819C-0.864,18.366 -0.354,16.778 0,15.057C0.354,13.336 0.532,11.492 0.532,9.525C0.532,7.559 0.354,5.715 0,3.994M6.997,-30.76L6.997,33.453L0.532,33.453L0.532,17.813L0.597,17.79C0.004,20.365 -0.864,22.697 -2.006,24.787C-3.149,26.876 -4.516,28.659 -6.107,30.135C-7.698,31.609 -9.495,32.748 -11.497,33.551C-13.5,34.353 -15.652,34.754 -17.951,34.754C-19.933,34.754 -21.809,34.477 -23.581,33.919C-25.353,33.363 -26.987,32.561 -28.484,31.512C-29.98,30.464 -31.329,29.191 -32.53,27.693C-33.73,26.196 -34.749,24.515 -35.589,22.649C-36.427,20.784 -37.071,18.745 -37.519,16.533C-37.968,14.319 -38.191,11.985 -38.191,9.525C-38.191,7.066 -37.968,4.735 -37.519,2.53C-37.071,0.323 -36.427,-1.716 -35.589,-3.588C-34.749,-5.461 -33.73,-7.147 -32.53,-8.643C-31.329,-10.14 -29.98,-11.409 -28.484,-12.451C-26.987,-13.491 -25.353,-14.291 -23.581,-14.847C-21.809,-15.405 -19.933,-15.682 -17.951,-15.682C-15.652,-15.682 -13.5,-15.285 -11.497,-14.49C-9.495,-13.694 -7.698,-12.559 -6.107,-11.083C-4.516,-9.609 -3.149,-7.827 -2.006,-5.736C-0.864,-3.646 0.004,-1.314 0.597,1.26L0.532,1.238L0.532,-30.76L6.997,-30.76Z" style="fill:white;fill-rule:nonzero;"/>
            </g>
        </g>
        <g transform="matrix(4.16667,0,0,4.16667,0,0)">
            <g transform="matrix(1,0,0,1,0,523.244)">
                <path d="M1283.27,310.127L1276.81,310.127L1276.81,262.292L1283.27,262.292L1283.27,310.127ZM1283.83,255.459L1276.24,255.459L1276.24,246.629L1283.83,246.629L1283.83,255.459Z" style="fill:white;fill-rule:nonzero;"/>
            </g>
        </g>
        <g transform="matrix(4.16667,0,0,4.16667,0,0)">
            <g transform="matrix(1,0,0,1,1349.59,801.416)">
                <path d="M0,16.075C0.767,18.462 1.862,20.489 3.287,22.161C4.711,23.831 6.433,25.118 8.45,26.022C10.468,26.926 12.72,27.377 15.208,27.377C17.695,27.377 19.948,26.93 21.965,26.033C23.983,25.136 25.7,23.849 27.117,22.172C28.534,20.493 29.626,18.462 30.393,16.075C31.16,13.688 31.543,11.006 31.543,8.027C31.543,5.047 31.16,2.369 30.393,-0.011C29.626,-2.389 28.534,-4.418 27.117,-6.096C25.7,-7.773 23.983,-9.06 21.965,-9.957C19.948,-10.854 17.695,-11.302 15.208,-11.302C12.72,-11.302 10.468,-10.854 8.45,-9.957C6.433,-9.06 4.711,-7.773 3.287,-6.096C1.862,-4.418 0.767,-2.389 0,-0.011C-0.767,2.369 -1.15,5.047 -1.15,8.027C-1.15,11.006 -0.767,13.688 0,16.075M-6.877,0.912C-6.385,-1.316 -5.672,-3.362 -4.74,-5.228C-3.807,-7.093 -2.672,-8.767 -1.334,-10.25C0.004,-11.733 1.515,-12.987 3.2,-14.014C4.885,-15.04 6.736,-15.826 8.754,-16.368C10.771,-16.91 12.915,-17.181 15.186,-17.181C17.471,-17.181 19.619,-16.91 21.629,-16.368C23.639,-15.826 25.49,-15.04 27.183,-14.014C28.874,-12.987 30.389,-11.733 31.727,-10.25C33.065,-8.767 34.197,-7.093 35.123,-5.228C36.048,-3.362 36.76,-1.316 37.259,0.912C37.759,3.139 38.008,5.51 38.008,8.027C38.008,10.543 37.759,12.915 37.259,15.143C36.76,17.37 36.048,19.419 35.123,21.293C34.197,23.166 33.061,24.84 31.717,26.314C30.371,27.79 28.856,29.045 27.171,30.078C25.487,31.113 23.639,31.9 21.629,32.444C19.619,32.986 17.471,33.256 15.186,33.256C12.915,33.256 10.771,32.986 8.754,32.444C6.736,31.9 4.885,31.113 3.2,30.078C1.515,29.045 0.004,27.79 -1.334,26.314C-2.672,24.84 -3.807,23.166 -4.74,21.293C-5.672,19.419 -6.385,17.37 -6.877,15.143C-7.368,12.915 -7.614,10.543 -7.614,8.027C-7.614,5.51 -7.368,3.139 -6.877,0.912" style="fill:white;fill-rule:nonzero;"/>
            </g>
        </g>
        <g transform="matrix(4.16667,0,0,4.16667,0,0)">
            <g transform="matrix(1,0,0,1,888.477,706.46)">
                <path d="M0,16.075C0.767,18.462 1.862,20.489 3.287,22.161C4.711,23.831 6.433,25.118 8.45,26.022C10.468,26.925 12.72,27.377 15.208,27.377C17.695,27.377 19.948,26.93 21.965,26.033C23.983,25.136 25.7,23.849 27.117,22.172C28.534,20.493 29.626,18.462 30.393,16.075C31.16,13.688 31.543,11.006 31.543,8.027C31.543,5.047 31.16,2.369 30.393,-0.011C29.626,-2.389 28.534,-4.418 27.117,-6.096C25.7,-7.773 23.983,-9.06 21.965,-9.957C19.948,-10.854 17.695,-11.302 15.208,-11.302C12.72,-11.302 10.468,-10.854 8.45,-9.957C6.433,-9.06 4.711,-7.773 3.287,-6.096C1.862,-4.418 0.767,-2.389 0,-0.011C-0.767,2.369 -1.15,5.047 -1.15,8.027C-1.15,11.006 -0.767,13.688 0,16.075M-6.877,0.912C-6.385,-1.316 -5.672,-3.362 -4.74,-5.228C-3.807,-7.093 -2.672,-8.767 -1.334,-10.25C0.004,-11.733 1.515,-12.987 3.2,-14.014C4.885,-15.04 6.736,-15.826 8.754,-16.368C10.771,-16.91 12.915,-17.181 15.186,-17.181C17.471,-17.181 19.619,-16.91 21.629,-16.368C23.639,-15.826 25.49,-15.04 27.183,-14.014C28.874,-12.987 30.389,-11.733 31.727,-10.25C33.065,-8.767 34.197,-7.093 35.123,-5.228C36.048,-3.362 36.76,-1.316 37.259,0.912C37.759,3.139 38.008,5.51 38.008,8.027C38.008,10.543 37.759,12.915 37.259,15.143C36.76,17.37 36.048,19.419 35.123,21.293C34.197,23.166 33.061,24.84 31.717,26.314C30.371,27.79 28.856,29.045 27.171,30.078C25.487,31.113 23.639,31.9 21.629,32.444C19.619,32.986 17.471,33.256 15.186,33.256C12.915,33.256 10.771,32.986 8.754,32.444C6.736,31.9 4.885,31.113 3.2,30.078C1.515,29.045 0.004,27.79 -1.334,26.314C-2.672,24.84 -3.807,23.166 -4.74,21.293C-5.672,19.419 -6.385,17.37 -6.877,15.143C-7.368,12.915 -7.614,10.543 -7.614,8.027C-7.614,5.51 -7.368,3.139 -6.877,0.912" style="fill:white;fill-rule:nonzero;"/>
            </g>
        </g>
        <g transform="matrix(4.16667,0,0,4.16667,0,0)">
            <g transform="matrix(1,0,0,1,940.606,689.279)">
                <path d="M0,49.136L-6.464,49.136L-6.464,1.301L0,1.301L0,15.75L-0.065,15.793C0.513,13.377 1.37,11.197 2.506,9.253C3.641,7.307 5.008,5.648 6.606,4.274C8.204,2.9 10.012,1.844 12.03,1.106C14.047,0.368 16.212,0 18.527,0C21.289,0 23.769,0.513 25.967,1.539C28.166,2.567 30.032,4.039 31.564,5.955C33.097,7.871 34.276,10.192 35.101,12.918C35.925,15.644 36.337,18.708 36.337,22.105L36.337,49.136L29.873,49.136L29.873,22.105C29.873,19.488 29.572,17.174 28.972,15.164C28.372,13.153 27.483,11.458 26.304,10.076C25.125,8.695 23.672,7.65 21.943,6.942C20.215,6.234 18.23,5.879 15.989,5.879C14.383,5.879 12.872,6.063 11.455,6.432C10.037,6.801 8.736,7.332 7.55,8.026C6.364,8.72 5.304,9.571 4.371,10.575C3.438,11.58 2.65,12.724 2.007,14.004C1.363,15.283 0.868,16.693 0.521,18.233C0.174,19.774 0,21.425 0,23.19L0,49.136Z" style="fill:white;fill-rule:nonzero;"/>
            </g>
        </g>
        <g transform="matrix(4.16667,0,0,4.16667,0,0)">
            <g transform="matrix(1,0,0,1,992.02,706.406)">
                <path d="M0,16.184C0.781,18.548 1.895,20.562 3.341,22.226C4.787,23.889 6.537,25.172 8.591,26.076C10.644,26.98 12.937,27.432 15.468,27.432C17.247,27.432 18.888,27.203 20.392,26.749C21.896,26.292 23.263,25.61 24.492,24.699C25.722,23.788 26.81,22.66 27.757,21.314C28.704,19.969 29.496,18.414 30.132,16.65L36.598,16.65C35.917,19.282 34.93,21.632 33.636,23.7C32.342,25.769 30.784,27.515 28.961,28.94C27.139,30.365 25.078,31.449 22.779,32.194C20.479,32.938 17.999,33.31 15.337,33.31C11.895,33.31 8.764,32.703 5.944,31.488C3.124,30.273 0.705,28.559 -1.312,26.347C-3.33,24.134 -4.888,21.474 -5.987,18.364C-7.087,15.255 -7.636,11.805 -7.636,8.016C-7.636,4.256 -7.09,0.832 -5.998,-2.256C-4.906,-5.344 -3.366,-7.991 -1.377,-10.196C0.611,-12.401 3.001,-14.108 5.792,-15.316C8.584,-16.522 11.671,-17.126 15.056,-17.126C18.295,-17.126 21.245,-16.559 23.907,-15.424C26.567,-14.289 28.853,-12.669 30.762,-10.565C32.671,-8.46 34.153,-5.911 35.209,-2.918C36.265,0.076 36.793,3.445 36.793,7.192C36.793,7.684 36.786,8.182 36.771,8.689C36.757,9.194 36.72,9.736 36.662,10.315L-2.668,10.315L-2.668,4.675L33.669,4.675L30.198,10.163C30.241,9.686 30.274,9.206 30.295,8.721C30.317,8.237 30.328,7.741 30.328,7.234C30.328,4.328 29.966,1.729 29.243,-0.563C28.52,-2.856 27.497,-4.795 26.174,-6.377C24.85,-7.961 23.252,-9.17 21.379,-10C19.506,-10.832 17.413,-11.248 15.099,-11.248C12.611,-11.248 10.366,-10.8 8.363,-9.903C6.359,-9.006 4.654,-7.719 3.243,-6.042C1.833,-4.364 0.745,-2.343 -0.022,0.022C-0.789,2.386 -1.172,5.036 -1.172,7.972L-1.172,8.276C-1.172,11.183 -0.781,13.818 0,16.184" style="fill:white;fill-rule:nonzero;"/>
            </g>
        </g>
        <g transform="matrix(4.16667,0,0,4.16667,0,0)">
            <g transform="matrix(1,0,0,1,1042.93,706.46)">
                <path d="M0,16.075C0.767,18.462 1.862,20.489 3.287,22.161C4.711,23.831 6.433,25.118 8.45,26.022C10.468,26.925 12.72,27.377 15.208,27.377C17.695,27.377 19.948,26.93 21.965,26.033C23.983,25.136 25.7,23.849 27.117,22.172C28.534,20.493 29.626,18.462 30.393,16.075C31.16,13.688 31.543,11.006 31.543,8.027C31.543,5.047 31.16,2.369 30.393,-0.011C29.626,-2.389 28.534,-4.418 27.117,-6.096C25.7,-7.773 23.983,-9.06 21.965,-9.957C19.948,-10.854 17.695,-11.302 15.208,-11.302C12.72,-11.302 10.468,-10.854 8.45,-9.957C6.433,-9.06 4.711,-7.773 3.287,-6.096C1.862,-4.418 0.767,-2.389 0,-0.011C-0.767,2.369 -1.15,5.047 -1.15,8.027C-1.15,11.006 -0.767,13.688 0,16.075M-6.877,0.912C-6.385,-1.316 -5.672,-3.362 -4.74,-5.228C-3.807,-7.093 -2.672,-8.767 -1.334,-10.25C0.004,-11.733 1.515,-12.987 3.2,-14.014C4.885,-15.04 6.736,-15.826 8.754,-16.368C10.771,-16.91 12.915,-17.181 15.186,-17.181C17.47,-17.181 19.619,-16.91 21.629,-16.368C23.639,-15.826 25.49,-15.04 27.183,-14.014C28.874,-12.987 30.389,-11.733 31.727,-10.25C33.065,-8.767 34.197,-7.093 35.123,-5.228C36.048,-3.362 36.76,-1.316 37.259,0.912C37.759,3.139 38.008,5.51 38.008,8.027C38.008,10.543 37.759,12.915 37.259,15.143C36.76,17.37 36.048,19.419 35.123,21.293C34.197,23.166 33.061,24.84 31.717,26.314C30.371,27.79 28.856,29.045 27.171,30.078C25.487,31.113 23.639,31.9 21.629,32.444C19.619,32.986 17.47,33.256 15.186,33.256C12.915,33.256 10.771,32.986 8.754,32.444C6.736,31.9 4.885,31.113 3.2,30.078C1.515,29.045 0.004,27.79 -1.334,26.314C-2.672,24.84 -3.807,23.166 -4.74,21.293C-5.672,19.419 -6.385,17.37 -6.877,15.143C-7.368,12.915 -7.614,10.543 -7.614,8.027C-7.614,5.51 -7.368,3.139 -6.877,0.912" style="fill:white;fill-rule:nonzero;"/>
            </g>
        </g>
        <g transform="matrix(4.16667,0,0,4.16667,0,0)">
            <g transform="matrix(1,0,0,1,1129.58,738.416)">
                <path d="M0,-47.835L-18.526,0L-28.375,0L-46.663,-47.835L-39.916,-47.835L-22.496,-1.975L-24.253,-1.975L-6.595,-47.835L0,-47.835Z" style="fill:white;fill-rule:nonzero;"/>
            </g>
        </g>
        <g transform="matrix(4.16667,0,0,4.16667,0,0)">
            <g transform="matrix(1,0,0,1,1139.21,706.406)">
                <path d="M0,16.184C0.781,18.548 1.895,20.562 3.341,22.226C4.787,23.889 6.537,25.172 8.591,26.076C10.644,26.98 12.937,27.432 15.468,27.432C17.247,27.432 18.888,27.203 20.392,26.749C21.896,26.292 23.263,25.61 24.492,24.699C25.722,23.788 26.81,22.66 27.757,21.314C28.704,19.969 29.496,18.414 30.132,16.65L36.598,16.65C35.917,19.282 34.93,21.632 33.636,23.7C32.342,25.769 30.784,27.515 28.961,28.94C27.139,30.365 25.078,31.449 22.779,32.194C20.479,32.938 17.999,33.31 15.337,33.31C11.895,33.31 8.765,32.703 5.944,31.488C3.124,30.273 0.705,28.559 -1.312,26.347C-3.33,24.134 -4.888,21.474 -5.987,18.364C-7.087,15.255 -7.636,11.805 -7.636,8.016C-7.636,4.256 -7.09,0.832 -5.998,-2.256C-4.906,-5.344 -3.366,-7.991 -1.377,-10.196C0.611,-12.401 3.001,-14.108 5.792,-15.316C8.583,-16.522 11.671,-17.126 15.056,-17.126C18.295,-17.126 21.245,-16.559 23.907,-15.424C26.567,-14.289 28.853,-12.669 30.762,-10.565C32.671,-8.46 34.153,-5.911 35.209,-2.918C36.265,0.076 36.793,3.445 36.793,7.192C36.793,7.684 36.786,8.182 36.771,8.689C36.757,9.194 36.72,9.736 36.662,10.315L-2.668,10.315L-2.668,4.675L33.669,4.675L30.198,10.163C30.241,9.686 30.274,9.206 30.295,8.721C30.317,8.237 30.328,7.741 30.328,7.234C30.328,4.328 29.966,1.729 29.243,-0.563C28.52,-2.856 27.497,-4.795 26.174,-6.377C24.85,-7.961 23.252,-9.17 21.379,-10C19.506,-10.832 17.413,-11.248 15.099,-11.248C12.611,-11.248 10.366,-10.8 8.363,-9.903C6.359,-9.006 4.654,-7.719 3.244,-6.042C1.833,-4.364 0.745,-2.343 -0.022,0.022C-0.788,2.386 -1.172,5.036 -1.172,7.972L-1.172,8.276C-1.172,11.183 -0.781,13.818 0,16.184" style="fill:white;fill-rule:nonzero;"/>
            </g>
        </g>
        <g transform="matrix(4.16667,0,0,4.16667,0,0)">
            <g transform="matrix(1,0,0,1,1190.13,690.58)">
                <path d="M0,47.835L-6.464,47.835L-6.464,0L0,0L0,15.837L-0.065,15.858C0.47,13.342 1.266,11.1 2.321,9.133C3.377,7.166 4.697,5.507 6.281,4.154C7.864,2.802 9.701,1.772 11.791,1.064C13.881,0.355 16.227,0 18.831,0L21,0L21,6.227L18.852,6.227C15.439,6.227 12.54,6.599 10.153,7.343C7.767,8.088 5.822,9.213 4.317,10.717C2.813,12.221 1.717,14.109 1.031,16.379C0.344,18.65 0,21.303 0,24.34L0,47.835Z" style="fill:white;fill-rule:nonzero;"/>
            </g>
        </g>
        <g transform="matrix(4.16667,0,0,4.16667,0,0)">
            <g transform="matrix(1,0,0,1,1222.69,693.727)">
                <path d="M0,41.543L-0.499,39.156L34.384,39.156L34.384,44.689L-5.358,44.689L-5.358,38.854L27.29,0.043L27.768,2.364L-4.512,2.364L-4.512,-3.146L32.692,-3.146L32.692,2.689L0,41.543Z" style="fill:white;fill-rule:nonzero;"/>
            </g>
        </g>
        <g transform="matrix(4.16667,0,0,4.16667,0,0)">
            <g transform="matrix(1,0,0,1,1268.44,706.406)">
                <path d="M0,16.184C0.781,18.548 1.895,20.562 3.341,22.226C4.787,23.889 6.537,25.172 8.591,26.076C10.644,26.98 12.937,27.432 15.468,27.432C17.247,27.432 18.888,27.203 20.392,26.749C21.896,26.292 23.263,25.61 24.493,24.699C25.722,23.788 26.81,22.66 27.757,21.314C28.704,19.969 29.496,18.414 30.132,16.65L36.598,16.65C35.917,19.282 34.93,21.632 33.636,23.7C32.342,25.769 30.784,27.515 28.961,28.94C27.139,30.365 25.078,31.449 22.779,32.194C20.479,32.938 17.999,33.31 15.337,33.31C11.895,33.31 8.765,32.703 5.944,31.488C3.124,30.273 0.705,28.559 -1.312,26.347C-3.33,24.134 -4.888,21.474 -5.987,18.364C-7.087,15.255 -7.636,11.805 -7.636,8.016C-7.636,4.256 -7.09,0.832 -5.998,-2.256C-4.906,-5.344 -3.366,-7.991 -1.377,-10.196C0.611,-12.401 3.001,-14.108 5.792,-15.316C8.584,-16.522 11.671,-17.126 15.056,-17.126C18.295,-17.126 21.245,-16.559 23.907,-15.424C26.567,-14.289 28.853,-12.669 30.762,-10.565C32.671,-8.46 34.153,-5.911 35.209,-2.918C36.265,0.076 36.793,3.445 36.793,7.192C36.793,7.684 36.786,8.182 36.771,8.689C36.757,9.194 36.72,9.736 36.662,10.315L-2.668,10.315L-2.668,4.675L33.669,4.675L30.198,10.163C30.241,9.686 30.274,9.206 30.295,8.721C30.317,8.237 30.328,7.741 30.328,7.234C30.328,4.328 29.966,1.729 29.243,-0.563C28.52,-2.856 27.497,-4.795 26.174,-6.377C24.85,-7.961 23.252,-9.17 21.379,-10C19.506,-10.832 17.413,-11.248 15.099,-11.248C12.611,-11.248 10.366,-10.8 8.363,-9.903C6.359,-9.006 4.654,-7.719 3.244,-6.042C1.833,-4.364 0.745,-2.343 -0.022,0.022C-0.788,2.386 -1.172,5.036 -1.172,7.972L-1.172,8.276C-1.172,11.183 -0.781,13.818 0,16.184" style="fill:white;fill-rule:nonzero;"/>
            </g>
        </g>
        <g transform="matrix(4.16667,0,0,4.16667,0,0)">
            <g transform="matrix(1,0,0,1,1319.36,690.58)">
                <path d="M0,47.835L-6.464,47.835L-6.464,0L0,0L0,15.837L-0.065,15.858C0.47,13.342 1.266,11.1 2.321,9.133C3.377,7.166 4.697,5.507 6.281,4.154C7.864,2.802 9.701,1.772 11.791,1.064C13.881,0.355 16.227,0 18.831,0L21,0L21,6.227L18.852,6.227C15.439,6.227 12.539,6.599 10.153,7.343C7.767,8.088 5.822,9.213 4.317,10.717C2.813,12.221 1.717,14.109 1.031,16.379C0.344,18.65 0,21.303 0,24.34L0,47.835Z" style="fill:white;fill-rule:nonzero;"/>
            </g>
        </g>
        <g transform="matrix(4.16667,0,0,4.16667,0,0)">
            <g transform="matrix(1,0,0,1,1352.11,706.46)">
                <path d="M0,16.075C0.767,18.462 1.862,20.489 3.287,22.161C4.711,23.831 6.433,25.118 8.45,26.022C10.468,26.925 12.72,27.377 15.208,27.377C17.695,27.377 19.948,26.93 21.965,26.033C23.983,25.136 25.7,23.849 27.117,22.172C28.534,20.493 29.626,18.462 30.393,16.075C31.16,13.688 31.543,11.006 31.543,8.027C31.543,5.047 31.16,2.369 30.393,-0.011C29.626,-2.389 28.534,-4.418 27.117,-6.096C25.7,-7.773 23.983,-9.06 21.965,-9.957C19.948,-10.854 17.695,-11.302 15.208,-11.302C12.72,-11.302 10.468,-10.854 8.45,-9.957C6.433,-9.06 4.711,-7.773 3.287,-6.096C1.862,-4.418 0.767,-2.389 0,-0.011C-0.767,2.369 -1.15,5.047 -1.15,8.027C-1.15,11.006 -0.767,13.688 0,16.075M-6.877,0.912C-6.385,-1.316 -5.672,-3.362 -4.74,-5.228C-3.807,-7.093 -2.672,-8.767 -1.334,-10.25C0.004,-11.733 1.515,-12.987 3.2,-14.014C4.885,-15.04 6.736,-15.826 8.754,-16.368C10.771,-16.91 12.915,-17.181 15.186,-17.181C17.47,-17.181 19.619,-16.91 21.629,-16.368C23.639,-15.826 25.49,-15.04 27.183,-14.014C28.874,-12.987 30.389,-11.733 31.727,-10.25C33.065,-8.767 34.197,-7.093 35.123,-5.228C36.048,-3.362 36.76,-1.316 37.259,0.912C37.759,3.139 38.008,5.51 38.008,8.027C38.008,10.543 37.759,12.915 37.259,15.143C36.76,17.37 36.048,19.419 35.123,21.293C34.197,23.166 33.061,24.84 31.717,26.314C30.371,27.79 28.856,29.045 27.171,30.078C25.487,31.113 23.639,31.9 21.629,32.444C19.619,32.986 17.47,33.256 15.186,33.256C12.915,33.256 10.771,32.986 8.754,32.444C6.736,31.9 4.885,31.113 3.2,30.078C1.515,29.045 0.004,27.79 -1.334,26.314C-2.672,24.84 -3.807,23.166 -4.74,21.293C-5.672,19.419 -6.385,17.37 -6.877,15.143C-7.368,12.915 -7.614,10.543 -7.614,8.027C-7.614,5.51 -7.368,3.139 -6.877,0.912" style="fill:white;fill-rule:nonzero;"/>
            </g>
        </g>
    </g>
</svg>
